<?xml version="1.0" standalone="no"?><!DOCTYPE svg PUBLIC "-//W3C//DTD SVG 1.1//EN" "http://www.w3.org/Graphics/SVG/1.1/DTD/svg11.dtd"><svg t="1606876769379" class="icon" viewBox="0 0 1255 1024" version="1.1" xmlns="http://www.w3.org/2000/svg" p-id="26591" width="512" height="512" xmlns:xlink="http://www.w3.org/1999/xlink"><defs><style type="text/css"></style></defs><path d="M438.925526 335.052448a288.197393 288.197393 0 0 0 238.347033-90.353778A272.619156 272.619156 0 0 0 743.090613 1.28871a287.418481 287.418481 0 0 0-237.957578 90.743233 274.566436 274.566436 0 0 0-66.207509 243.020505z" fill="#82A63B" p-id="26592"></path><path d="M438.925526 334.662992a287.418481 287.418481 0 0 0 238.347033-90.353778A272.619156 272.619156 0 0 0 743.090613 1.28871l-105.542559 116.836781 66.596965 9.736398-86.848674 12.852046z" fill="#DBD9BF" p-id="26593"></path><path d="M856.811746 595.598469a428.401531 428.401531 0 1 1-428.40153-428.40153 424.896427 424.896427 0 0 1 428.40153 428.40153z" fill="#ED7A1F" p-id="26594"></path><path d="M1251.720066 650.122301c0 206.022191-171.360612 372.319876-449.042695 372.319875a372.709332 372.709332 0 1 1 0-745.029207c278.071539 0 449.042695 166.687141 449.042695 372.709332z" fill="#F78500" p-id="26595"></path><path d="M791.383149 823.040737A426.064795 426.064795 0 0 1 513.31161 1013.874146c-74.386084-109.437118-81.785747-269.503508-81.785747-342.721225z" fill="#DEC4A3" p-id="26596"></path><path d="M802.677371 650.122301m-372.709332 0a372.709332 372.709332 0 1 0 745.418664 0 372.709332 372.709332 0 1 0-745.418664 0Z" fill="#FFAD00" p-id="26597"></path><path d="M1152.798258 649.732845v18.693885a348.173608 348.173608 0 0 1-38.945593 142.930328c-5.452383 10.125854-10.904766 19.862253-17.136062 29.598652a350.510343 350.510343 0 0 1-104.763647 103.984735c-9.346942 6.231295-19.083341 11.683678-29.598651 17.136061a347.00524 347.00524 0 0 1-142.540873 38.945594h-33.882666a344.668504 344.668504 0 0 1-142.151417-38.945594 338.437209 338.437209 0 0 1-29.598651-17.136061A350.510343 350.510343 0 0 1 509.417051 840.95571a340.384489 340.384489 0 0 1-17.136062-29.598652 347.784152 347.784152 0 0 1-38.945593-142.930328v-18.693885-15.188782a341.942313 341.942313 0 0 1 38.945593-143.319785 291.313041 291.313041 0 0 1 16.746606-29.598651 350.510343 350.510343 0 0 1 104.763647-105.542559c9.736398-6.231295 19.083341-11.683678 29.598651-17.136061a345.447416 345.447416 0 0 1 144.098696-38.945594H820.9818a343.889592 343.889592 0 0 1 144.098697 38.945594c10.125854 5.062927 19.862253 10.904766 29.598651 17.136061a350.510343 350.510343 0 0 1 104.763647 105.542559 278.460995 278.460995 0 0 1 16.746605 29.598651 342.331769 342.331769 0 0 1 38.945594 143.319785c-2.726192 5.452383-2.336736 10.125854-2.336736 15.188782z" fill="#FCF2A1" p-id="26598"></path><path d="M869.663792 385.681719l-54.913287 206.801103c0 2.726192 0 5.062927-1.94728 7.789119v5.452383a9.736398 9.736398 0 0 1-7.789118 4.284015 10.125854 10.125854 0 0 1-7.789119-3.894559v-5.452383l-2.336736-7.789119-59.586758-207.190559a30.767019 30.767019 0 0 1 27.261916-38.945593h79.838467a30.767019 30.767019 0 0 1 27.261915 38.945593zM869.663792 914.173426l-54.913287-206.801103c0-2.726192 0-5.062927-1.94728-7.789118v-5.452384a9.736398 9.736398 0 0 0-7.789118-4.284015 10.51531 10.51531 0 0 0-7.789119 3.89456v5.452383l-2.336736 7.789118-55.692199 206.411647a30.767019 30.767019 0 0 0 27.261916 38.945594h79.838467a30.767019 30.767019 0 0 0 23.367356-38.166682zM728.291287 387.628999l55.692199 206.411647c0 2.726192 0 5.062927 1.94728 7.789118v5.452384a10.125854 10.125854 0 0 1-4.673471 7.789118 10.51531 10.51531 0 0 1-8.957487 0l-4.284015-3.894559-5.841839-5.452383-151.49836-151.108904a30.767019 30.767019 0 0 1 3.89456-47.513624l69.323156-38.945594a30.767019 30.767019 0 0 1 44.397977 19.472797zM992.731868 845.239725l-150.719447-151.498359-5.452383-5.84184-4.284016-3.894559a9.736398 9.736398 0 0 0-8.957486 0 10.125854 10.125854 0 0 0-5.062927 7.399663v13.241502l54.913287 206.801102a30.767019 30.767019 0 0 0 43.229609 20.641165l69.323156-38.945594a30.767019 30.767019 0 0 0 7.010207-47.90308zM607.170491 459.678347l151.498359 151.108904 5.841839 5.452383 3.89456 4.284015a10.125854 10.125854 0 0 1 0 8.957487 10.125854 10.125854 0 0 1-7.399663 5.062927h-13.241502l-206.801103-54.913287a30.767019 30.767019 0 0 1-20.641164-43.229609l38.945593-69.323157a30.767019 30.767019 0 0 1 47.903081-7.399663zM1065.170673 724.118929L859.927394 668.42673l-7.789119-1.94728h-5.452383a10.125854 10.125854 0 0 0-7.789119 4.673471 10.51531 10.51531 0 0 0 0 8.568031l3.89456 4.284015 5.452383 5.841839 151.108903 151.49836a30.767019 30.767019 0 0 0 47.90308-3.89456l38.945594-69.323157a30.767019 30.767019 0 0 0-21.03062-44.00852zM538.23679 582.746423L743.090613 637.659711l7.789118 1.947279h5.452384a10.125854 10.125854 0 0 1 4.284015 8.178575 10.51531 10.51531 0 0 1-3.89456 7.789119h-5.452383l-7.789118 2.336735-206.411647 55.692199a30.767019 30.767019 0 0 1-38.945594-27.261915v-76.333364a30.767019 30.767019 0 0 1 40.113962-27.261916zM1066.728496 582.746423L859.927394 637.659711l-7.789119 1.947279h-5.452383a10.125854 10.125854 0 0 0-4.284015 8.178575 10.51531 10.51531 0 0 0 3.894559 7.789119h5.452383l7.789119 2.336735 206.411646 55.692199a30.767019 30.767019 0 0 0 38.945594-27.261915v-76.333364a30.767019 30.767019 0 0 0-38.166682-27.261916zM540.18407 724.118929l206.411646-55.692199 7.789119-1.94728h5.452383a9.736398 9.736398 0 0 1 7.789119 4.673471 10.125854 10.125854 0 0 1 0 8.568031l-3.89456 4.284015-5.452383 5.841839-151.108903 151.49836a30.767019 30.767019 0 0 1-47.513625-3.89456l-38.945593-69.323157a30.767019 30.767019 0 0 1 19.472797-44.00852zM997.794795 459.678347l-151.498359 151.108904-5.841839 5.452383-3.894559 4.284015a9.736398 9.736398 0 0 0 0 8.957487 10.51531 10.51531 0 0 0 7.399662 5.062927h5.452383l7.789119-1.94728 206.801103-54.913287a30.767019 30.767019 0 0 0 20.641164-43.229609l-38.945593-69.323156a30.767019 30.767019 0 0 0-47.903081-5.452384zM612.233418 845.239725l150.719447-151.498359 5.452384-5.84184 4.284015-3.894559a9.736398 9.736398 0 0 1 8.957486 0 10.125854 10.125854 0 0 1 5.062928 7.399663v13.241502l-54.913287 206.411646a30.767019 30.767019 0 0 1-43.229609 20.641165l-69.323157-38.945594a30.767019 30.767019 0 0 1-7.010207-47.513624zM876.673999 387.628999L820.9818 594.040646c0 2.726192 0 5.062927-1.94728 7.789118v5.452384a9.736398 9.736398 0 0 0 4.673472 7.789118 10.51531 10.51531 0 0 0 8.957486 0l4.284015-3.894559 5.84184-5.452383 151.498359-151.108904a30.767019 30.767019 0 0 0-3.894559-47.513624l-69.323157-38.945594a30.767019 30.767019 0 0 0-44.397977 19.472797z" fill="#FFB000" p-id="26599"></path><path d="M178.379504 418.006562m-31.935387 0a31.935387 31.935387 0 1 0 63.870774 0 31.935387 31.935387 0 1 0-63.870774 0Z" fill="#FFAD00" p-id="26600"></path><path d="M237.187351 490.055911m-14.020414 0a14.020414 14.020414 0 1 0 28.040827 0 14.020414 14.020414 0 1 0-28.040827 0Z" fill="#FFAD00" p-id="26601"></path><path d="M299.110845 284.423176m-21.809533 0a21.809532 21.809532 0 1 0 43.619065 0 21.809532 21.809532 0 1 0-43.619065 0Z" fill="#FFAD00" p-id="26602"></path></svg>