<?xml version="1.0" standalone="no"?><!DOCTYPE svg PUBLIC "-//W3C//DTD SVG 1.1//EN" "http://www.w3.org/Graphics/SVG/1.1/DTD/svg11.dtd"><svg t="1606874847500" class="icon" viewBox="0 0 1024 1024" version="1.1" xmlns="http://www.w3.org/2000/svg" p-id="21678" xmlns:xlink="http://www.w3.org/1999/xlink" width="512" height="512"><defs><style type="text/css"></style></defs><path d="M428 602m-260.6 0a260.6 260.6 0 1 0 521.2 0 260.6 260.6 0 1 0-521.2 0Z" fill="#EFB81C" p-id="21679"></path><path d="M259.8 799c-7 0-14.2-2.6-19.6-8-50.8-50.4-78.6-117.6-78.6-189 0-147 119.6-266.4 266.4-266.4 75 0 147 32 197.6 87.6 10.2 11.4 9.4 28.8-2 39.2-11.4 10.2-28.8 9.4-39.2-2-40-44.2-97-69.4-156.4-69.4-116.4 0-211 94.6-211 211 0 56.6 22.2 109.8 62.4 149.8 10.8 10.8 11 28.4 0.2 39.2-5.6 5.4-12.8 8-19.8 8z" fill="#F9D658" p-id="21680"></path><path d="M419.8 193h16.6v148.4h-16.6z" fill="#434244" p-id="21681"></path><path d="M576.8 157.4c-150.8 0-148.8 148.8-148.8 148.8s148.8 2 148.8-148.8z" fill="#40A3DB" p-id="21682"></path><path d="M428.2 314.6l-8.4-0.2-0.2-8c0-2.8-0.4-69.6 45-115.6 27.2-27.6 65-41.6 112.2-41.6h8.4v8.4c0 80.4-41.4 118.8-76 137-38 19.4-76.6 20-81 20zM568.4 166c-38.6 1.6-69.4 13.8-91.8 36.6-31.6 32-38.4 76.6-39.8 95.2 13.2-1 39-4.6 64.8-18 42.2-22.2 64.6-60.4 66.8-113.8z" fill="#434244" p-id="21683"></path><path d="M428 857.4c-25.8 0-51.4-3.8-76-11.4-14.6-4.6-22.8-20-18.2-34.6 4.6-14.6 20-22.8 34.6-18.2 19.2 6 39.2 9 59.4 9 110.2 0 200-89.8 200-200 0-21.2-3.4-42.2-9.8-62.2-4.8-14.6 3.2-30.2 17.8-35 14.6-4.8 30.2 3.2 35 17.8 8.4 25.6 12.6 52.4 12.6 79.4 0 140.6-114.6 255.2-255.4 255.2z" fill="#E2AA25" p-id="21684"></path><path d="M428 870.8c-148.2 0-268.8-120.6-268.8-268.8 0-148.2 120.6-268.8 268.8-268.8 148.2 0 268.8 120.6 268.8 268.8 0.2 148.2-120.6 268.8-268.8 268.8z m0-521c-139.2 0-252.2 113.2-252.2 252.2 0 139.2 113.2 252.2 252.2 252.2 139.2 0 252.2-113.2 252.2-252.2 0-139.2-113-252.2-252.2-252.2zM571.068 151.61l11.74 11.738-148.916 148.916-11.74-11.74z" fill="#434244" p-id="21685"></path><path d="M408.8 642.8c0 123.6 100.4 223.8 224 223.8s223.8-100.4 223.8-224l-447.8 0.2z" fill="#E3F3F7" p-id="21686"></path><path d="M450 643.4c0 101 81.8 182.8 182.8 182.6 101 0 182.8-81.8 182.6-182.8l-365.4 0.2z" fill="#F9D658" p-id="21687"></path><path d="M483.2 643.4s-1.8 34.2 35.8 34.2c37.6 0 93-34.2 93-34.2h-128.8zM792.2 643.2s1.8 34.2-35.8 34.2c-37.6 0-97.8-34.2-97.8-34.2h133.6zM627.4 652.6s-57.6 30.2-80.2 49.2c-15.4 13-26.8 33-9.8 49 19.4 17.8 37.8 2.2 48.8-16.8 15-25.4 41.2-81.4 41.2-81.4zM652.4 655.6s53.2 27.2 75.8 46.2c15.4 13 26.8 33 9.8 49-19.2 17.8-37.8 2.2-48.8-16.8-14.8-25.4-36.8-78.4-36.8-78.4zM638.4 652.6s20 62.6 24 91.8c2.8 20-2.2 42.6-25.6 42.8-26.4 0.4-29.6-23.8-25-45.2 6-28.6 26.6-89.4 26.6-89.4z" fill="#EFB81C" p-id="21688"></path><path d="M632.8 874.8c-128 0-232.2-104.2-232.2-232v-8.4l464.4-0.2v8.4c0 62-24.2 120.4-68 164.2-43.8 43.8-102.2 68-164.2 68zM417.4 651c4.4 115 99.4 207.2 215.4 207.2v8.4-8.4c57.6 0 111.6-22.4 152.4-63.2 38.8-38.8 60.8-89.6 63-144.2l-430.8 0.2z" fill="#434244" p-id="21689"></path></svg>